<?xml version="1.0" encoding="UTF-8"?><svg id="Layer_1" xmlns="http://www.w3.org/2000/svg" viewBox="0 0 22.5 22.5"><path d="M11.25,0C5.04,0,0,5.04,0,11.25s5.04,11.25,11.25,11.25,11.25-5.04,11.25-11.25S17.46,0,11.25,0Zm9.75,11.25h0c0,4.46-2.99,8.21-7.07,9.38l-.07,.02v-3.65c0-.87-.23-1.5-.7-1.9,.52-.05,.98-.14,1.44-.26h-.06c.48-.12,.9-.3,1.28-.52h-.03c.42-.22,.78-.52,1.08-.87h0c.29-.36,.53-.83,.71-1.41s.27-1.26,.27-2.01c0-1.08-.35-2-1.06-2.76,.33-.81,.29-1.72-.11-2.73-.25-.08-.61-.03-1.08,.15-.48,.18-.88,.37-1.26,.61l.03-.02-.51,.32c-.77-.22-1.65-.35-2.57-.35s-1.8,.13-2.64,.36l.07-.02c-.59-1.13-2.09-1.2-2.84-1.06-.5,.8-.44,2.05-.09,2.73-.7,.76-1.06,1.68-1.06,2.76,0,.76,.09,1.43,.27,2.01,.18,.58,.42,1.05,.7,1.4,.3,.36,.65,.66,1.06,.89h.02c.36,.22,.78,.4,1.22,.52h.04c.39,.11,.86,.2,1.33,.25h.04c-.36,.32-.58,.78-.66,1.38-.17,.08-.37,.15-.59,.2h-.02c-.21,.05-.46,.07-.71,.07h-.05c-.29,0-.59-.1-.88-.29s-.54-.47-.74-.84c-.17-.28-.38-.51-.64-.69h0c-.26-.18-.48-.29-.66-.33l-.12-.03s-.04,0-.07,0c-.12,0-.22,.07-.28,.17h0s-.02,.03-.02,.03c-.02,.04-.03,.09-.03,.14,0,.12,.07,.23,.18,.28h0c.2,.09,.39,.26,.58,.51,.16,.2,.3,.42,.41,.66v.02s.14,.31,.14,.31c.11,.34,.32,.62,.59,.82h0c.25,.2,.55,.34,.88,.4h.01c.28,.06,.6,.09,.93,.1h0s.08,0,.12,0c.22,0,.43-.02,.64-.05h-.02s.31-.05,.31-.05c0,.34,0,.74,0,1.19,0,.28,0,1.03,0,1.58-4.21-1.14-7.26-4.93-7.26-9.43C1.5,7.24,3.93,3.79,7.39,2.29l.06-.02c1.12-.49,2.43-.77,3.8-.77,5.38,0,9.75,4.36,9.75,9.75h0s0,0,0,0Z" fill="#fff"/></svg>